<?xml version="1.0" encoding="UTF-8"?>
<svg width="974px" height="200px" viewBox="0 0 974 200" version="1.1" xmlns="http://www.w3.org/2000/svg" xmlns:xlink="http://www.w3.org/1999/xlink">
    <!-- Generator: Sketch 62 (91390) - https://sketch.com -->
    <title>moti_logo</title>
    <desc>Created with Sketch.</desc>
    <g id="logo" stroke="none" stroke-width="1" fill="none" fill-rule="evenodd">
        <g id="moti_logo" fill="#E7BC9E" fill-rule="nonzero">
            <g id="Group" transform="translate(0.000000, 0.500000)">
                <polygon id="Path-Copy" points="21.07589 199 21.07589 37.0523013 99.4946237 142.103208 178.050214 37.0523013 178.050214 199 198.989247 199 198.989247 0 180.787342 0 99.4946237 108.103905 18.201905 0 0 0 0 199"></polygon>
                <path d="M418.924731,0 C446.554671,0 470.044582,9.67553015 489.394465,29.0264586 C508.744347,48.3773871 518.419355,71.8685675 518.419355,99.5 C518.419355,127.131432 508.744347,150.622613 489.394465,169.973541 C470.044582,189.32447 446.554671,199 418.924731,199 C391.294792,199 367.804881,189.32447 348.454998,169.973541 C329.105115,150.622613 319.430108,127.131432 319.430108,99.5 C319.430108,71.8685675 329.105115,48.3773871 348.454998,29.0264586 C367.804881,9.67553015 391.294792,0 418.924731,0 Z M418.924731,21.3214286 C396.971661,21.3214286 378.454379,28.8234127 363.372755,43.827381 C348.291131,58.8313492 340.750384,77.3888889 340.750384,99.5 C340.750384,121.611111 348.291131,140.168651 363.372755,155.172619 C378.454379,170.176587 396.971661,177.678571 418.924731,177.678571 C440.877801,177.678571 459.395083,170.176587 474.476707,155.172619 C489.558332,140.168651 497.099078,121.611111 497.099078,99.5 C497.099078,77.3888889 489.558332,58.8313492 474.476707,43.827381 C459.395083,28.8234127 440.877801,21.3214286 418.924731,21.3214286 Z" id="Combined-Shape-Copy"></path>
                <polygon id="Path-Copy-2" points="721.149002 199 721.149002 21.3214286 806.430108 21.3214286 806.430108 0 607.44086 0 607.44086 21.3214286 699.828725 21.3214286 699.828725 199"></polygon>
                <polygon id="Path-Copy-3" points="974 199 974 0 953.053763 0 953.053763 199"></polygon>
            </g>
        </g>
    </g>
</svg>